<svg width="40" height="40" viewBox="0 0 40 40" fill="none" xmlns="http://www.w3.org/2000/svg">
<path d="M27.5 14.3833C26.8167 14.3833 26.25 13.8167 26.25 13.1333V10.8333C26.25 9.08333 25.5 7.38333 24.2 6.2C22.8833 5 21.1833 4.45 19.3833 4.61667C16.3833 4.9 13.75 7.96667 13.75 11.1667V12.7833C13.75 13.4667 13.1833 14.0333 12.5 14.0333C11.8167 14.0333 11.25 13.4667 11.25 12.7833V11.15C11.25 6.66667 14.8667 2.53333 19.15 2.11667C21.65 1.88333 24.05 2.66667 25.8833 4.35C27.7 6 28.75 8.36667 28.75 10.8333V13.1333C28.75 13.8167 28.1833 14.3833 27.5 14.3833Z" fill="black"/>
<path d="M25.0001 37.9167H15.0001C7.30006 37.9167 5.86673 34.3333 5.50006 30.85L4.25006 20.8667C4.06673 19.0667 4.00006 16.4833 5.75006 14.55C7.25006 12.8833 9.7334 12.0833 13.3334 12.0833H26.6667C30.2834 12.0833 32.7667 12.9 34.2501 14.55C35.9834 16.4833 35.9334 19.0667 35.7501 20.8333L34.5001 30.85C34.1334 34.3333 32.7001 37.9167 25.0001 37.9167ZM13.3334 14.5833C10.5167 14.5833 8.5834 15.1333 7.60006 16.2333C6.7834 17.1333 6.51673 18.5167 6.7334 20.5833L7.9834 30.5667C8.26673 33.2333 9.00006 35.4333 15.0001 35.4333H25.0001C31.0001 35.4333 31.7334 33.25 32.0167 30.6L33.2667 20.5833C33.4834 18.55 33.2167 17.1667 32.4001 16.25C31.4167 15.1333 29.4834 14.5833 26.6667 14.5833H13.3334Z" fill="black"/>
<path d="M25.6998 21.9166C24.7665 21.9166 24.0165 21.1666 24.0165 20.25C24.0165 19.3333 24.7665 18.5833 25.6831 18.5833C26.5998 18.5833 27.3498 19.3333 27.3498 20.25C27.3498 21.1666 26.6165 21.9166 25.6998 21.9166Z" fill="black"/>
<path d="M14.0332 21.9166C13.0999 21.9166 12.3499 21.1666 12.3499 20.25C12.3499 19.3333 13.0999 18.5833 14.0165 18.5833C14.9332 18.5833 15.6832 19.3333 15.6832 20.25C15.6832 21.1666 14.9499 21.9166 14.0332 21.9166Z" fill="black"/>
</svg>
